<svg width="512" height="512" viewBox="0 0 512 512" fill="none" xmlns="http://www.w3.org/2000/svg">
<rect x="110" y="111" width="292" height="292" fill="#006972"/>
<path d="M180.881 234.134C180.678 235.713 180.272 237.166 179.663 238.494C179.053 239.806 178.264 240.931 177.295 241.869C176.311 242.822 175.147 243.564 173.803 244.095C172.475 244.611 170.991 244.869 169.35 244.869C167.944 244.869 166.663 244.673 165.506 244.283C164.366 243.877 163.35 243.322 162.459 242.619C161.553 241.916 160.772 241.088 160.116 240.134C159.475 239.181 158.944 238.142 158.522 237.017C158.084 235.892 157.756 234.713 157.538 233.478C157.334 232.244 157.225 230.994 157.209 229.728V224.97C157.225 223.705 157.334 222.455 157.538 221.22C157.756 219.986 158.084 218.806 158.522 217.681C158.944 216.556 159.475 215.517 160.116 214.564C160.772 213.595 161.553 212.759 162.459 212.056C163.35 211.353 164.366 210.806 165.506 210.416C166.647 210.009 167.928 209.806 169.35 209.806C171.053 209.806 172.577 210.072 173.92 210.603C175.264 211.119 176.42 211.853 177.389 212.806C178.358 213.775 179.131 214.931 179.709 216.275C180.303 217.619 180.694 219.103 180.881 220.728H176.545C176.405 219.697 176.163 218.736 175.819 217.845C175.475 216.955 175.014 216.173 174.436 215.502C173.858 214.83 173.147 214.306 172.303 213.931C171.475 213.541 170.491 213.345 169.35 213.345C168.319 213.345 167.405 213.517 166.608 213.861C165.827 214.189 165.155 214.642 164.592 215.22C164.014 215.798 163.53 216.47 163.139 217.236C162.764 218.002 162.459 218.814 162.225 219.673C161.991 220.533 161.819 221.416 161.709 222.322C161.616 223.213 161.569 224.08 161.569 224.923V229.728C161.569 230.572 161.616 231.447 161.709 232.353C161.819 233.244 161.991 234.119 162.225 234.978C162.459 235.853 162.764 236.673 163.139 237.439C163.514 238.205 163.991 238.877 164.569 239.455C165.147 240.048 165.827 240.517 166.608 240.861C167.389 241.189 168.303 241.353 169.35 241.353C170.491 241.353 171.475 241.173 172.303 240.814C173.147 240.455 173.858 239.947 174.436 239.291C175.014 238.65 175.475 237.892 175.819 237.017C176.163 236.127 176.405 235.166 176.545 234.134H180.881ZM191.944 222.814C192.288 222.298 192.67 221.83 193.092 221.408C193.514 220.97 193.959 220.588 194.428 220.259C195.178 219.713 195.998 219.298 196.889 219.017C197.795 218.736 198.756 218.588 199.772 218.572C201.1 218.572 202.303 218.767 203.381 219.158C204.475 219.533 205.405 220.127 206.17 220.939C206.936 221.752 207.522 222.783 207.928 224.033C208.35 225.267 208.561 226.736 208.561 228.439V244.4H204.225V228.392C204.225 227.392 204.108 226.517 203.873 225.767C203.639 225.002 203.295 224.369 202.842 223.869C202.358 223.322 201.748 222.916 201.014 222.65C200.28 222.369 199.436 222.236 198.483 222.252C197.702 222.252 196.959 222.361 196.256 222.58C195.553 222.798 194.905 223.111 194.311 223.517C193.842 223.83 193.405 224.197 192.998 224.619C192.608 225.025 192.256 225.478 191.944 225.978V244.4H187.608V208.4H191.944V222.814ZM233.1 244.4C232.928 244.072 232.788 243.666 232.678 243.181C232.584 242.681 232.514 242.166 232.467 241.634C232.03 242.072 231.538 242.486 230.991 242.877C230.459 243.267 229.873 243.611 229.233 243.908C228.577 244.205 227.881 244.439 227.147 244.611C226.413 244.783 225.631 244.869 224.803 244.869C223.459 244.869 222.241 244.673 221.147 244.283C220.069 243.892 219.155 243.361 218.405 242.689C217.639 242.033 217.045 241.252 216.623 240.345C216.217 239.423 216.014 238.431 216.014 237.369C216.014 235.978 216.288 234.759 216.834 233.713C217.397 232.666 218.186 231.791 219.202 231.088C220.217 230.4 221.436 229.884 222.858 229.541C224.295 229.197 225.897 229.025 227.663 229.025H232.397V227.033C232.397 226.267 232.256 225.58 231.975 224.97C231.694 224.361 231.295 223.838 230.78 223.4C230.264 222.978 229.631 222.65 228.881 222.416C228.147 222.181 227.319 222.064 226.397 222.064C225.538 222.064 224.764 222.173 224.077 222.392C223.405 222.611 222.834 222.9 222.366 223.259C221.897 223.619 221.53 224.048 221.264 224.548C221.014 225.033 220.889 225.541 220.889 226.072H216.53C216.545 225.15 216.78 224.244 217.233 223.353C217.702 222.463 218.373 221.658 219.248 220.939C220.108 220.236 221.155 219.666 222.389 219.228C223.639 218.791 225.053 218.572 226.631 218.572C228.069 218.572 229.405 218.752 230.639 219.111C231.873 219.455 232.944 219.978 233.85 220.681C234.741 221.4 235.444 222.291 235.959 223.353C236.475 224.416 236.733 225.658 236.733 227.08V238.869C236.733 239.713 236.811 240.611 236.967 241.564C237.123 242.502 237.342 243.322 237.623 244.025V244.4H233.1ZM225.436 241.095C226.28 241.095 227.069 240.986 227.803 240.767C228.538 240.548 229.209 240.259 229.819 239.9C230.413 239.541 230.928 239.134 231.366 238.681C231.803 238.213 232.147 237.728 232.397 237.228V232.095H228.366C226.866 232.095 225.553 232.228 224.428 232.494C223.319 232.744 222.436 233.134 221.78 233.666C221.311 234.041 220.952 234.486 220.702 235.002C220.467 235.517 220.35 236.103 220.35 236.759C220.35 237.384 220.452 237.963 220.655 238.494C220.873 239.025 221.194 239.478 221.616 239.853C222.038 240.244 222.569 240.548 223.209 240.767C223.85 240.986 224.592 241.095 225.436 241.095ZM255.53 212.9V219.041H265.186V222.392H255.53V236.173C255.53 237.158 255.655 237.97 255.905 238.611C256.155 239.252 256.498 239.759 256.936 240.134C257.373 240.525 257.873 240.798 258.436 240.955C259.014 241.111 259.623 241.189 260.264 241.189C260.733 241.189 261.217 241.166 261.717 241.119C262.217 241.056 262.709 240.986 263.194 240.908C263.663 240.83 264.1 240.752 264.506 240.673C264.928 240.58 265.272 240.502 265.538 240.439L266.147 243.509C265.788 243.728 265.35 243.923 264.834 244.095C264.319 244.252 263.756 244.384 263.147 244.494C262.538 244.619 261.889 244.713 261.202 244.775C260.53 244.838 259.858 244.869 259.186 244.869C258.061 244.869 257.006 244.713 256.022 244.4C255.053 244.072 254.209 243.556 253.491 242.853C252.772 242.166 252.202 241.275 251.78 240.181C251.373 239.072 251.17 237.736 251.17 236.173V222.392H244.514V219.041H251.17V212.9H255.53ZM274.045 244.4V210.275H284.194C285.6 210.291 286.975 210.478 288.319 210.838C289.663 211.181 290.858 211.72 291.905 212.455C292.952 213.189 293.788 214.127 294.413 215.267C295.038 216.408 295.342 217.775 295.327 219.369C295.311 220.259 295.163 221.072 294.881 221.806C294.616 222.541 294.248 223.197 293.78 223.775C293.295 224.369 292.756 224.869 292.163 225.275C291.584 225.681 290.881 226.064 290.053 226.423V226.494C290.913 226.697 291.741 227.064 292.538 227.595C293.334 228.127 293.991 228.713 294.506 229.353C295.053 230.056 295.475 230.845 295.772 231.72C296.084 232.595 296.241 233.541 296.241 234.556C296.256 236.15 295.952 237.556 295.327 238.775C294.702 239.994 293.866 241.009 292.819 241.822C291.772 242.65 290.561 243.283 289.186 243.72C287.827 244.158 286.42 244.384 284.967 244.4H274.045ZM278.405 228.439V240.72H285.084C285.991 240.705 286.85 240.556 287.663 240.275C288.475 239.978 289.194 239.572 289.819 239.056C290.444 238.541 290.936 237.908 291.295 237.158C291.67 236.408 291.858 235.556 291.858 234.603C291.873 233.634 291.709 232.775 291.366 232.025C291.038 231.275 290.577 230.634 289.983 230.103C289.389 229.588 288.694 229.189 287.897 228.908C287.1 228.627 286.241 228.47 285.319 228.439H278.405ZM278.405 224.83H284.452C285.264 224.814 286.061 224.689 286.842 224.455C287.623 224.205 288.319 223.845 288.928 223.377C289.538 222.923 290.03 222.361 290.405 221.689C290.78 221.017 290.967 220.236 290.967 219.345C290.967 218.392 290.78 217.58 290.405 216.908C290.045 216.236 289.561 215.681 288.952 215.244C288.327 214.822 287.608 214.509 286.795 214.306C285.998 214.103 285.178 213.994 284.334 213.978H278.405V224.83ZM301.702 231.486C301.702 229.658 301.967 227.963 302.498 226.4C303.03 224.822 303.795 223.455 304.795 222.298C305.78 221.142 306.983 220.236 308.405 219.58C309.827 218.908 311.428 218.572 313.209 218.572C315.006 218.572 316.616 218.908 318.038 219.58C319.475 220.236 320.694 221.142 321.694 222.298C322.678 223.455 323.436 224.822 323.967 226.4C324.498 227.963 324.764 229.658 324.764 231.486V232.002C324.764 233.83 324.498 235.525 323.967 237.088C323.436 238.65 322.678 240.009 321.694 241.166C320.694 242.322 319.483 243.228 318.061 243.884C316.639 244.541 315.038 244.869 313.256 244.869C311.459 244.869 309.842 244.541 308.405 243.884C306.983 243.228 305.78 242.322 304.795 241.166C303.795 240.009 303.03 238.65 302.498 237.088C301.967 235.525 301.702 233.83 301.702 232.002V231.486ZM306.038 232.002C306.038 233.252 306.186 234.447 306.483 235.588C306.78 236.713 307.233 237.705 307.842 238.564C308.436 239.423 309.186 240.103 310.092 240.603C310.998 241.103 312.053 241.353 313.256 241.353C314.444 241.353 315.483 241.103 316.373 240.603C317.28 240.103 318.038 239.423 318.647 238.564C319.241 237.705 319.686 236.713 319.983 235.588C320.28 234.447 320.428 233.252 320.428 232.002V231.486C320.428 230.252 320.272 229.072 319.959 227.947C319.663 226.806 319.217 225.806 318.623 224.947C318.014 224.088 317.256 223.408 316.35 222.908C315.459 222.392 314.413 222.134 313.209 222.134C312.006 222.134 310.959 222.392 310.069 222.908C309.178 223.408 308.436 224.088 307.842 224.947C307.233 225.806 306.78 226.806 306.483 227.947C306.186 229.072 306.038 230.252 306.038 231.486V232.002ZM342.225 228.439L348.998 219.041H354.084L344.639 231.58L354.342 244.4H349.327L342.319 234.744L335.311 244.4H330.248L339.952 231.58L330.506 219.041H335.522L342.225 228.439ZM247.139 298.564H235.748L233.006 307.4H228.67L239.686 273.275H243.319L254.147 307.4H249.834L247.139 298.564ZM236.92 294.791H245.991L241.491 279.978L236.92 294.791ZM259.678 273.275H280.303V277.048H272.123V303.65H280.303V307.4H259.678V303.65H267.67V277.048H259.678V273.275Z" fill="white"/>
</svg>
