<svg width="512" height="512" viewBox="0 0 512 512" fill="none" xmlns="http://www.w3.org/2000/svg">
<g clip-path="url(#clip0_892_223)">
<rect width="512" height="512" fill="#F5FAFB"/>
<rect x="2.63184" y="2.63318" width="507.208" height="507.208" fill="#006972"/>
<path d="M125.753 215.656C125.4 218.397 124.694 220.921 123.636 223.228C122.577 225.508 121.207 227.462 119.524 229.09C117.814 230.746 115.792 232.035 113.458 232.958C111.151 233.853 108.573 234.301 105.723 234.301C103.28 234.301 101.055 233.962 99.0462 233.284C97.0649 232.578 95.3008 231.614 93.7537 230.393C92.1796 229.172 90.8225 227.733 89.6826 226.078C88.5698 224.422 87.647 222.617 86.9142 220.663C86.1543 218.709 85.5843 216.66 85.2044 214.516C84.8515 212.371 84.6615 210.2 84.6344 208.002V199.737C84.6615 197.539 84.8515 195.368 85.2044 193.224C85.5843 191.08 86.1543 189.03 86.9142 187.076C87.647 185.122 88.5698 183.317 89.6826 181.662C90.8225 179.979 92.1796 178.527 93.7537 177.306C95.3008 176.084 97.0649 175.134 99.0462 174.456C101.027 173.75 103.253 173.397 105.723 173.397C108.681 173.397 111.327 173.859 113.662 174.781C115.996 175.677 118.004 176.953 119.687 178.608C121.37 180.291 122.713 182.299 123.717 184.634C124.749 186.968 125.427 189.546 125.753 192.369H118.221C117.977 190.577 117.556 188.908 116.959 187.361C116.362 185.814 115.561 184.457 114.557 183.29C113.553 182.123 112.318 181.214 110.852 180.562C109.414 179.884 107.704 179.545 105.723 179.545C103.932 179.545 102.344 179.843 100.96 180.44C99.6026 181.01 98.4355 181.797 97.4584 182.802C96.4542 183.806 95.6129 184.973 94.9344 186.303C94.283 187.633 93.7537 189.044 93.3466 190.537C92.9395 192.029 92.641 193.563 92.451 195.137C92.2881 196.684 92.2067 198.19 92.2067 199.656V208.002C92.2067 209.467 92.2881 210.987 92.451 212.561C92.641 214.109 92.9395 215.628 93.3466 217.121C93.7537 218.641 94.283 220.066 94.9344 221.396C95.5857 222.726 96.4135 223.893 97.4177 224.897C98.4219 225.928 99.6026 226.743 100.96 227.34C102.317 227.91 103.904 228.195 105.723 228.195C107.704 228.195 109.414 227.882 110.852 227.258C112.318 226.634 113.553 225.752 114.557 224.612C115.561 223.499 116.362 222.183 116.959 220.663C117.556 219.116 117.977 217.447 118.221 215.656H125.753ZM144.968 195.992C145.566 195.096 146.231 194.282 146.963 193.549C147.696 192.789 148.47 192.124 149.284 191.554C150.587 190.605 152.012 189.885 153.559 189.397C155.133 188.908 156.802 188.65 158.566 188.623C160.873 188.623 162.963 188.963 164.836 189.641C166.735 190.292 168.35 191.324 169.68 192.735C171.01 194.146 172.028 195.938 172.734 198.109C173.466 200.253 173.833 202.804 173.833 205.763V233.487H166.301V205.681C166.301 203.944 166.098 202.424 165.69 201.122C165.283 199.792 164.686 198.693 163.899 197.824C163.058 196.874 161.999 196.168 160.724 195.707C159.448 195.218 157.982 194.988 156.327 195.015C154.97 195.015 153.681 195.205 152.459 195.585C151.238 195.965 150.112 196.508 149.08 197.213C148.266 197.756 147.506 198.394 146.8 199.127C146.122 199.832 145.511 200.62 144.968 201.488V233.487H137.437V170.955H144.968V195.992ZM216.457 233.487C216.159 232.917 215.915 232.211 215.725 231.37C215.562 230.502 215.44 229.606 215.358 228.683C214.598 229.443 213.743 230.162 212.793 230.841C211.871 231.519 210.853 232.116 209.74 232.632C208.6 233.148 207.392 233.555 206.117 233.853C204.841 234.152 203.484 234.301 202.046 234.301C199.712 234.301 197.595 233.962 195.695 233.284C193.822 232.605 192.234 231.682 190.931 230.515C189.602 229.375 188.57 228.018 187.837 226.444C187.132 224.843 186.779 223.119 186.779 221.274C186.779 218.858 187.254 216.741 188.204 214.923C189.181 213.104 190.551 211.584 192.316 210.363C194.08 209.169 196.197 208.273 198.667 207.676C201.164 207.079 203.945 206.78 207.012 206.78H215.236V203.32C215.236 201.99 214.992 200.796 214.503 199.737C214.015 198.679 213.323 197.77 212.427 197.01C211.531 196.277 210.432 195.707 209.129 195.3C207.854 194.893 206.415 194.689 204.814 194.689C203.321 194.689 201.978 194.879 200.784 195.259C199.617 195.639 198.626 196.141 197.812 196.766C196.997 197.39 196.36 198.136 195.898 199.005C195.464 199.846 195.247 200.728 195.247 201.651H187.675C187.702 200.05 188.109 198.475 188.896 196.928C189.71 195.381 190.877 193.984 192.397 192.735C193.89 191.514 195.708 190.523 197.852 189.763C200.024 189.003 202.48 188.623 205.221 188.623C207.718 188.623 210.039 188.935 212.183 189.56C214.327 190.157 216.186 191.066 217.76 192.287C219.307 193.536 220.529 195.083 221.424 196.928C222.32 198.774 222.768 200.932 222.768 203.401V223.879C222.768 225.345 222.903 226.905 223.175 228.561C223.446 230.189 223.826 231.614 224.315 232.836V233.487H216.457ZM203.145 227.747C204.61 227.747 205.981 227.557 207.257 227.177C208.532 226.797 209.699 226.295 210.758 225.671C211.789 225.046 212.685 224.341 213.445 223.554C214.205 222.739 214.802 221.898 215.236 221.029V212.114H208.234C205.628 212.114 203.348 212.344 201.394 212.806C199.467 213.24 197.934 213.919 196.794 214.841C195.98 215.493 195.355 216.266 194.921 217.162C194.514 218.058 194.31 219.075 194.31 220.215C194.31 221.301 194.487 222.305 194.84 223.228C195.22 224.151 195.776 224.938 196.509 225.589C197.242 226.268 198.164 226.797 199.277 227.177C200.39 227.557 201.679 227.747 203.145 227.747ZM255.418 178.771V189.437H272.191V195.259H255.418V219.197C255.418 220.907 255.635 222.319 256.069 223.431C256.504 224.544 257.101 225.426 257.861 226.078C258.621 226.756 259.489 227.231 260.466 227.503C261.47 227.774 262.529 227.91 263.642 227.91C264.456 227.91 265.297 227.869 266.166 227.787C267.034 227.679 267.889 227.557 268.731 227.421C269.545 227.285 270.305 227.15 271.01 227.014C271.743 226.851 272.34 226.715 272.802 226.607L273.86 231.94C273.236 232.32 272.476 232.659 271.58 232.958C270.685 233.229 269.708 233.46 268.649 233.65C267.591 233.867 266.464 234.03 265.27 234.138C264.103 234.247 262.936 234.301 261.769 234.301C259.815 234.301 257.983 234.03 256.273 233.487C254.59 232.917 253.125 232.021 251.876 230.8C250.628 229.606 249.637 228.059 248.904 226.159C248.199 224.232 247.846 221.911 247.846 219.197V195.259H236.284V189.437H247.846V178.771H255.418ZM287.58 233.487V174.211H305.208C307.651 174.239 310.039 174.564 312.373 175.189C314.707 175.786 316.783 176.722 318.602 177.998C320.42 179.273 321.872 180.902 322.958 182.883C324.044 184.864 324.573 187.239 324.546 190.007C324.519 191.554 324.261 192.966 323.772 194.241C323.311 195.517 322.673 196.657 321.859 197.661C321.017 198.693 320.081 199.561 319.05 200.267C318.046 200.972 316.824 201.637 315.386 202.262V202.384C316.878 202.737 318.317 203.374 319.701 204.297C321.085 205.22 322.225 206.238 323.121 207.35C324.071 208.572 324.804 209.942 325.319 211.462C325.862 212.982 326.133 214.624 326.133 216.388C326.161 219.157 325.631 221.599 324.546 223.716C323.46 225.833 322.008 227.598 320.19 229.009C318.371 230.447 316.268 231.546 313.879 232.306C311.518 233.066 309.075 233.46 306.551 233.487H287.58ZM295.152 205.763V227.095H306.755C308.329 227.068 309.822 226.81 311.233 226.322C312.644 225.806 313.893 225.101 314.979 224.205C316.064 223.309 316.919 222.21 317.543 220.907C318.195 219.605 318.52 218.125 318.52 216.47C318.548 214.787 318.263 213.294 317.666 211.992C317.096 210.689 316.295 209.576 315.264 208.653C314.232 207.758 313.024 207.065 311.64 206.577C310.256 206.088 308.763 205.817 307.162 205.763H295.152ZM295.152 199.493H305.656C307.067 199.466 308.451 199.249 309.808 198.842C311.165 198.408 312.373 197.783 313.432 196.969C314.49 196.182 315.345 195.205 315.996 194.038C316.648 192.871 316.973 191.514 316.973 189.967C316.973 188.311 316.648 186.9 315.996 185.733C315.372 184.566 314.531 183.602 313.472 182.842C312.387 182.109 311.138 181.567 309.727 181.214C308.343 180.861 306.918 180.671 305.452 180.644H295.152V199.493ZM335.619 211.055C335.619 207.88 336.081 204.935 337.003 202.221C337.926 199.48 339.256 197.105 340.993 195.096C342.703 193.088 344.793 191.514 347.263 190.374C349.732 189.207 352.514 188.623 355.608 188.623C358.73 188.623 361.525 189.207 363.995 190.374C366.492 191.514 368.609 193.088 370.346 195.096C372.056 197.105 373.372 199.48 374.295 202.221C375.218 204.935 375.679 207.88 375.679 211.055V211.951C375.679 215.126 375.218 218.071 374.295 220.785C373.372 223.499 372.056 225.86 370.346 227.869C368.609 229.877 366.505 231.451 364.036 232.591C361.566 233.731 358.784 234.301 355.69 234.301C352.569 234.301 349.76 233.731 347.263 232.591C344.793 231.451 342.703 229.877 340.993 227.869C339.256 225.86 337.926 223.499 337.003 220.785C336.081 218.071 335.619 215.126 335.619 211.951V211.055ZM343.151 211.951C343.151 214.122 343.409 216.198 343.924 218.18C344.44 220.134 345.227 221.857 346.286 223.35C347.317 224.843 348.62 226.023 350.194 226.892C351.768 227.76 353.6 228.195 355.69 228.195C357.753 228.195 359.557 227.76 361.104 226.892C362.679 226.023 363.995 224.843 365.053 223.35C366.085 221.857 366.858 220.134 367.374 218.18C367.89 216.198 368.147 214.122 368.147 211.951V211.055C368.147 208.911 367.876 206.862 367.333 204.908C366.818 202.926 366.044 201.189 365.013 199.697C363.954 198.204 362.638 197.023 361.064 196.155C359.517 195.259 357.698 194.811 355.608 194.811C353.519 194.811 351.7 195.259 350.153 196.155C348.606 197.023 347.317 198.204 346.286 199.697C345.227 201.189 344.44 202.926 343.924 204.908C343.409 206.862 343.151 208.911 343.151 211.055V211.951ZM406.009 205.763L417.774 189.437H426.609L410.202 211.218L427.057 233.487H418.344L406.172 216.714L393.999 233.487H385.205L402.06 211.218L385.653 189.437H394.365L406.009 205.763ZM240.843 328.139H221.058L216.295 343.487H208.763L227.897 284.211H234.207L253.016 343.487H245.525L240.843 328.139ZM223.093 321.584H238.849L231.032 295.855L223.093 321.584ZM262.624 284.211H298.45V290.766H284.242V336.973H298.45V343.487H262.624V336.973H276.506V290.766H262.624V284.211Z" fill="white"/>
</g>
<defs>
<clipPath id="clip0_892_223">
<rect width="512" height="512" fill="white"/>
</clipPath>
</defs>
</svg>
